<svg width="117" height="25" viewBox="0 0 117 25" fill="none" xmlns="http://www.w3.org/2000/svg">
<g clip-path="url(#clip0_1112_248)">
<path d="M48.5733 8.94681C48.5733 6.90107 48.5846 4.85607 48.5655 2.81106C48.5606 2.30832 48.6683 2.03015 49.2205 2.15909C49.289 2.16891 49.3585 2.1711 49.4275 2.16561C50.9317 2.19387 50.931 2.19387 50.9317 3.76656C50.9317 7.26982 50.9317 10.7728 50.9317 14.2756C50.9317 15.7447 51.357 17.0501 52.4713 18.0425C54.1825 19.5674 57.7487 19.2233 58.8411 16.5828C59.596 14.758 59.5769 12.9825 58.2265 11.4525C56.8024 9.83783 54.639 9.60745 52.606 10.7339C51.878 11.1367 51.8688 11.1317 51.861 10.3152C51.861 10.292 51.861 10.2682 51.861 10.2428C51.8497 8.44043 51.8355 8.32893 53.5622 7.97248C55.6101 7.55525 57.6289 7.79861 59.3224 9.175C61.1697 10.6789 61.9204 12.7058 61.6212 15.1007C61.3072 17.6136 60.1829 19.6493 57.8288 20.6381C53.4226 22.4896 48.7888 19.6695 48.5924 14.7298C48.5159 12.805 48.5804 10.8745 48.5804 8.94681H48.5733ZM95.2666 17.4104C95.4246 18.279 95.3375 19.0463 95.3303 19.8078C95.3303 20.014 95.1262 20.0973 94.9767 20.2059C93.615 21.1736 92.0953 21.4082 90.521 21.0542C87.9379 20.4751 86.4338 18.7191 85.7864 16.156C85.2488 14.0156 85.5777 12.0251 86.9057 10.2451C87.9918 8.78883 89.5258 8.13232 91.2165 7.92022C93.5006 7.63065 95.6079 8.16416 97.2615 9.90426C98.1448 10.8154 98.6427 12.0456 98.6479 13.3295C98.6707 15.6537 98.6447 17.9786 98.6701 20.3029C98.6759 20.8421 98.4841 20.9724 97.9869 20.9717C96.278 20.9674 96.2761 20.9854 96.2748 19.2243C96.2748 17.5103 96.1974 15.7912 96.3021 14.0851C96.4126 12.2878 95.1912 10.6759 93.4642 10.2213C91.2132 9.62773 88.9649 10.5904 88.1641 12.7786C87.3535 14.9942 88.1283 17.7007 90.4644 18.6894C91.8665 19.2808 93.3004 19.0934 94.523 18.0307C94.7466 17.8396 94.9722 17.6572 95.2666 17.4104ZM77.0361 7.78784C80.8327 7.79581 83.7174 10.6188 83.72 14.3291C83.72 18.1212 80.8776 21.1653 77.3494 21.1437C73.1952 21.1211 70.4015 18.3336 70.3307 14.2986C70.28 11.1102 73.3902 7.58265 77.0361 7.78784ZM77.1069 18.8715C79.7141 19.0166 81.2344 17.244 81.2123 14.1695C81.1961 11.7932 79.1089 9.99601 76.9808 9.97647C74.6701 9.95472 72.8176 12.1919 72.8136 14.408C72.8072 16.9497 74.4653 19.0311 77.1056 18.8715H77.1069ZM115.155 20.9934C111.843 21.2165 109.643 19.2601 108.627 16.6313C107.578 13.9108 109.091 10.2263 111.639 8.9119C113.24 8.08571 114.897 8.18252 116.574 8.18105C116.619 8.18105 116.682 8.17022 116.708 8.19621C117.242 8.74216 116.862 9.42394 116.949 10.0349C117.01 10.4602 116.676 10.4372 116.398 10.4386C115.92 10.4386 115.441 10.4531 114.963 10.4386C112.814 10.3765 111.121 11.9805 110.837 14.1109C110.546 16.2775 111.94 18.1227 114.142 18.626C114.888 18.7964 115.639 18.7336 116.388 18.7257C116.839 18.7206 116.968 18.8896 116.977 19.3402C117.009 20.9955 117.023 20.9947 115.426 20.9926L115.155 20.9934ZM103.332 9.39907C104.278 8.3998 105.307 7.79548 106.638 7.84907C107.061 7.86576 107.297 7.9621 107.242 8.44256C107.236 8.55984 107.236 8.67746 107.242 8.79475C107.242 9.97228 107.242 9.95419 106.098 10.1469C104.639 10.3962 104.008 11.5165 103.548 12.7998C103.395 13.2267 103.37 13.6694 103.37 14.1165C103.37 16.1839 103.354 18.2513 103.377 20.3187C103.383 20.8339 103.245 21.0049 102.725 21.0086C101.021 21.0201 101.022 21.0426 101.023 19.2991C101.023 15.8209 101.035 12.3426 101.01 8.86862C101.006 8.27228 101.194 8.04834 101.752 8.13238C101.797 8.13604 101.843 8.13604 101.888 8.13238C103.112 8.12806 103.112 8.12806 103.332 9.39907ZM67.2016 14.6C67.2016 16.5304 67.1905 18.4614 67.21 20.3911C67.2139 20.8408 67.0949 21.044 66.6211 21.0063C66.2025 20.9729 65.7826 20.9729 65.364 21.0063C64.8541 21.0454 64.7386 20.8089 64.74 20.3367C64.7534 16.4528 64.7534 12.5686 64.74 8.68418C64.74 8.22793 64.8835 8.06902 65.3393 8.05745C67.1977 8.0117 67.1996 7.99867 67.2042 9.87101C67.2081 11.4481 67.2042 13.0251 67.2042 14.6022L67.2016 14.6ZM67.405 5.20879C67.405 6.06111 66.8857 6.58812 66.0348 6.58244C65.2178 6.57675 64.5608 5.95883 64.5452 5.18251C64.5324 4.4346 65.1684 3.80317 65.9503 3.79039C66.1395 3.78556 66.3273 3.81866 66.5035 3.88775C66.6796 3.95684 66.8408 4.06051 66.976 4.19268C67.1119 4.32485 67.2191 4.48283 67.2932 4.65734C67.3667 4.83184 67.405 5.01933 67.405 5.20879ZM40.9071 4.84511C37.1027 1.8112 31.6329 2.32716 28.2224 5.81718L26.0267 8.06317L29.9267 12.0525L32.1861 9.74069C33.6031 8.29189 35.8716 8.03192 37.4738 9.26064C37.9738 9.64149 38.3798 10.1365 38.6595 10.7063C38.9393 11.2761 39.085 11.9049 39.085 12.5426C39.085 13.1802 38.9393 13.809 38.6595 14.3788C38.3798 14.9486 37.9738 15.4437 37.4738 15.8245C35.8716 17.0532 33.6031 16.7919 32.1861 15.3444L29.575 12.6755L29.445 12.5426L25.545 8.55319L25.415 8.42021L20.8189 3.71545C19.6862 2.55571 18.3408 1.63633 16.8598 1.01012C15.3787 0.38392 13.7914 0.0632428 12.1888 0.0664917H3.10115C2.27848 0.0677493 1.4899 0.402815 0.908486 0.998174C0.327077 1.59353 0 2.40053 0 3.24205V12.9548L0.0091 12.9435C0.0602828 14.6967 0.473296 16.4191 1.22104 17.9975C1.96879 19.576 3.03436 20.9749 4.34785 22.1024C9.22285 26.3078 16.4925 25.7965 21.0041 21.1842L25.5541 16.5299L28.2289 19.266C31.6394 22.7547 37.1079 23.2719 40.9123 20.2394C42.0613 19.3296 42.9915 18.1628 43.6314 16.8283C44.2712 15.4939 44.604 14.0273 44.604 12.5409C44.604 11.0546 44.2712 9.58797 43.6314 8.25353C42.9915 6.91909 42.0613 5.75225 40.9123 4.84245L40.9071 4.84511ZM16.9221 17.3803C15.9902 18.341 14.8 18.9963 13.503 19.263C12.206 19.5297 10.8607 19.3957 9.63833 18.8782C8.41594 18.3606 7.37165 17.4827 6.63839 16.3563C5.90511 15.2299 5.51597 13.9059 5.52041 12.5525V7.59375C5.52041 7.09182 5.71533 6.61047 6.06223 6.25549C6.40914 5.90051 6.87967 5.701 7.37035 5.70083H12.155C13.0386 5.69506 13.9146 5.86908 14.7319 6.21277C15.5491 6.55647 16.2915 7.06297 16.9156 7.70279L21.645 12.5412L16.9221 17.3803Z" fill="white"/>
<path d="M15.3401 14.1988V10.8836C15.3401 10.7662 15.3627 10.6499 15.4066 10.5414C15.4506 10.4329 15.515 10.3343 15.5961 10.2513C15.6773 10.1683 15.7737 10.1024 15.8797 10.0574C15.9858 10.0125 16.0995 9.98936 16.2143 9.98936C16.3291 9.98936 16.4428 10.0125 16.5489 10.0574C16.6549 10.1024 16.7513 10.1683 16.8325 10.2513C16.9137 10.3343 16.9781 10.4329 17.022 10.5414C17.0659 10.6499 17.0886 10.7662 17.0886 10.8836V14.1988C17.0886 14.436 16.9964 14.6634 16.8325 14.8312C16.6685 14.9989 16.4462 15.0931 16.2143 15.0931C15.9824 15.0931 15.7601 14.9989 15.5961 14.8312C15.4322 14.6634 15.3401 14.436 15.3401 14.1988ZM8.46175 14.1988V10.8836C8.45857 10.7641 8.47885 10.6451 8.52136 10.5338C8.56387 10.4223 8.62776 10.3208 8.70934 10.2351C8.79085 10.1494 8.88835 10.0813 8.99605 10.0348C9.10369 9.98829 9.21946 9.96429 9.33633 9.96429C9.45326 9.96429 9.56896 9.98829 9.67667 10.0348C9.78431 10.0813 9.88181 10.1494 9.96338 10.2351C10.0449 10.3208 10.1088 10.4223 10.1513 10.5338C10.1938 10.6451 10.2141 10.7641 10.2109 10.8836V14.1988C10.2141 14.3183 10.1938 14.4373 10.1513 14.5487C10.1088 14.6601 10.0449 14.7616 9.96338 14.8473C9.88181 14.933 9.78431 15.0011 9.67667 15.0477C9.56896 15.0942 9.45326 15.1181 9.33633 15.1181C9.21946 15.1181 9.10369 15.0942 8.99605 15.0477C8.88835 15.0011 8.79085 14.933 8.70934 14.8473C8.62776 14.7616 8.56387 14.6601 8.52136 14.5487C8.47885 14.4373 8.45857 14.3183 8.46175 14.1988ZM11.8983 15.6489V9.43749C11.8983 9.20033 11.9904 8.97287 12.1543 8.80518C12.3183 8.63743 12.5407 8.54321 12.7726 8.54321C13.0044 8.54321 13.2268 8.63743 13.3908 8.80518C13.5547 8.97287 13.6468 9.20033 13.6468 9.43749V15.6489C13.6468 15.8861 13.5547 16.1136 13.3908 16.2813C13.2268 16.449 13.0044 16.5432 12.7726 16.5432C12.5407 16.5432 12.3183 16.449 12.1543 16.2813C11.9904 16.1136 11.8983 15.8861 11.8983 15.6489ZM36.4579 13.4229V11.6589C36.4546 11.5943 36.4641 11.5296 36.486 11.4689C36.5079 11.4082 36.5416 11.3527 36.5852 11.3056C36.6287 11.2587 36.6812 11.2213 36.7393 11.1957C36.7974 11.1702 36.8601 11.157 36.9233 11.157C36.9866 11.157 37.0492 11.1702 37.1073 11.1957C37.1654 11.2213 37.2179 11.2587 37.2614 11.3056C37.305 11.3527 37.3387 11.4082 37.3606 11.4689C37.3825 11.5296 37.3921 11.5943 37.3887 11.6589V13.4229C37.3921 13.4875 37.3825 13.5522 37.3606 13.6129C37.3387 13.6737 37.305 13.7292 37.2614 13.7761C37.2179 13.8231 37.1654 13.8605 37.1073 13.886C37.0492 13.9116 36.9866 13.9248 36.9233 13.9248C36.8601 13.9248 36.7974 13.9116 36.7393 13.886C36.6812 13.8605 36.6287 13.8231 36.5852 13.7761C36.5416 13.7292 36.5079 13.6737 36.486 13.6129C36.4641 13.5522 36.4546 13.4875 36.4579 13.4229ZM32.7978 13.4229V11.6589C32.7944 11.5943 32.804 11.5296 32.8258 11.4689C32.8477 11.4082 32.8815 11.3527 32.925 11.3056C32.9686 11.2587 33.021 11.2213 33.0791 11.1957C33.1372 11.1702 33.1999 11.157 33.2632 11.157C33.3265 11.157 33.3891 11.1702 33.4472 11.1957C33.5053 11.2213 33.5577 11.2587 33.6013 11.3056C33.6448 11.3527 33.6786 11.4082 33.7005 11.4689C33.7223 11.5296 33.7319 11.5943 33.7286 11.6589V13.4229C33.7319 13.4875 33.7223 13.5522 33.7005 13.6129C33.6786 13.6737 33.6448 13.7292 33.6013 13.7761C33.5577 13.8231 33.5053 13.8605 33.4472 13.886C33.3891 13.9116 33.3265 13.9248 33.2632 13.9248C33.1999 13.9248 33.1372 13.9116 33.0791 13.886C33.021 13.8605 32.9686 13.8231 32.925 13.7761C32.8815 13.7292 32.8477 13.6737 32.8258 13.6129C32.804 13.5522 32.7944 13.4875 32.7978 13.4229ZM34.6282 14.1948V10.887C34.6345 10.7651 34.6863 10.6503 34.7728 10.5663C34.8594 10.4822 34.9742 10.4354 35.0936 10.4354C35.2129 10.4354 35.3277 10.4822 35.4143 10.5663C35.5008 10.6503 35.5526 10.7651 35.559 10.887V14.1948C35.5623 14.2594 35.5527 14.3241 35.5309 14.3848C35.509 14.4455 35.4752 14.5011 35.4317 14.5481C35.3881 14.595 35.3357 14.6324 35.2776 14.658C35.2195 14.6836 35.1568 14.6967 35.0936 14.6967C35.0303 14.6967 34.9676 14.6836 34.9095 14.658C34.8514 14.6324 34.799 14.595 34.7554 14.5481C34.7119 14.5011 34.6781 14.4455 34.6562 14.3848C34.6344 14.3241 34.6248 14.2594 34.6282 14.1948Z" fill="white"/>
<path d="M22.0928 20.0632L25.5449 16.5293L21.6449 12.5399L18.1902 16.0738L22.0928 20.0632Z" fill="white"/>
<path d="M40.9071 4.84511C37.1026 1.8112 31.6329 2.32716 28.2223 5.81718L26.0266 8.06317L29.9266 12.0525L32.1861 9.74069C33.6031 8.29189 35.8716 8.03192 37.4738 9.26064C37.9738 9.64149 38.3798 10.1365 38.6595 10.7063C38.9393 11.2761 39.085 11.9049 39.085 12.5426C39.085 13.1802 38.9393 13.809 38.6595 14.3788C38.3798 14.9486 37.9738 15.4437 37.4738 15.8245C35.8716 17.0532 33.6031 16.7919 32.1861 15.3444L29.575 12.6755L29.445 12.5426L25.545 8.55319L25.415 8.42021L20.8188 3.71545C19.6862 2.55571 18.3408 1.63633 16.8598 1.01012C15.3787 0.38392 13.7914 0.0632428 12.1888 0.0664917H3.10115C2.27848 0.0677493 1.4899 0.402815 0.908485 0.998174C0.327077 1.59353 0 2.40053 0 3.24205V12.9548L0.0091 12.9435C0.0602828 14.6967 0.473296 16.4191 1.22104 17.9975C1.96878 19.576 3.03436 20.9749 4.34785 22.1024C9.22285 26.3078 16.4925 25.7965 21.0041 21.1842L25.5541 16.5299L28.2288 19.266C31.6394 22.7547 37.1078 23.2719 40.9123 20.2394C42.0613 19.3296 42.9915 18.1628 43.6314 16.8283C44.2712 15.4939 44.604 14.0273 44.604 12.5409C44.604 11.0546 44.2712 9.58797 43.6314 8.25353C42.9915 6.91909 42.0613 5.75225 40.9123 4.84245L40.9071 4.84511ZM16.9221 17.3803C15.9902 18.341 14.8 18.9963 13.503 19.263C12.206 19.5297 10.8607 19.3957 9.63833 18.8782C8.41594 18.3606 7.37165 17.4827 6.63838 16.3563C5.90511 15.2299 5.51597 13.9059 5.52041 12.5525V7.59375C5.52041 7.09182 5.71533 6.61047 6.06223 6.25549C6.40914 5.90051 6.87966 5.701 7.37035 5.70083H12.155C13.0386 5.69506 13.9145 5.86908 14.7319 6.21277C15.5491 6.55647 16.2915 7.06297 16.9156 7.70279L21.645 12.5412L16.9221 17.3803Z" fill="white"/>
<path d="M15.3401 14.1988V10.8836C15.3401 10.7662 15.3627 10.6499 15.4066 10.5414C15.4506 10.4329 15.515 10.3343 15.5961 10.2513C15.6773 10.1683 15.7737 10.1024 15.8797 10.0574C15.9858 10.0125 16.0995 9.98936 16.2143 9.98936C16.3291 9.98936 16.4428 10.0125 16.5489 10.0574C16.6549 10.1024 16.7513 10.1683 16.8325 10.2513C16.9137 10.3343 16.9781 10.4329 17.022 10.5414C17.0659 10.6499 17.0886 10.7662 17.0886 10.8836V14.1988C17.0886 14.436 16.9964 14.6634 16.8325 14.8312C16.6685 14.9989 16.4462 15.0931 16.2143 15.0931C15.9824 15.0931 15.7601 14.9989 15.5961 14.8312C15.4322 14.6634 15.3401 14.436 15.3401 14.1988ZM8.46175 14.1988V10.8836C8.45857 10.7641 8.47885 10.6451 8.52136 10.5338C8.56387 10.4223 8.62776 10.3208 8.70934 10.2351C8.79085 10.1494 8.88835 10.0813 8.99605 10.0348C9.10369 9.98829 9.21946 9.96429 9.33633 9.96429C9.45326 9.96429 9.56896 9.98829 9.67667 10.0348C9.78431 10.0813 9.88181 10.1494 9.96338 10.2351C10.0449 10.3208 10.1088 10.4223 10.1513 10.5338C10.1938 10.6451 10.2141 10.7641 10.2109 10.8836V14.1988C10.2141 14.3183 10.1938 14.4373 10.1513 14.5487C10.1088 14.6601 10.0449 14.7616 9.96338 14.8473C9.88181 14.933 9.78431 15.0011 9.67667 15.0477C9.56896 15.0942 9.45326 15.1181 9.33633 15.1181C9.21946 15.1181 9.10369 15.0942 8.99605 15.0477C8.88835 15.0011 8.79085 14.933 8.70934 14.8473C8.62776 14.7616 8.56387 14.6601 8.52136 14.5487C8.47885 14.4373 8.45857 14.3183 8.46175 14.1988ZM11.8983 15.6489V9.43749C11.8983 9.20033 11.9904 8.97287 12.1543 8.80518C12.3183 8.63743 12.5407 8.54321 12.7726 8.54321C13.0044 8.54321 13.2268 8.63743 13.3908 8.80518C13.5547 8.97287 13.6468 9.20033 13.6468 9.43749V15.6489C13.6468 15.8861 13.5547 16.1136 13.3908 16.2813C13.2268 16.449 13.0044 16.5432 12.7726 16.5432C12.5407 16.5432 12.3183 16.449 12.1543 16.2813C11.9904 16.1136 11.8983 15.8861 11.8983 15.6489ZM36.4579 13.4229V11.6589C36.4546 11.5943 36.4641 11.5296 36.486 11.4689C36.5079 11.4082 36.5416 11.3527 36.5852 11.3056C36.6287 11.2587 36.6812 11.2213 36.7393 11.1957C36.7974 11.1702 36.8601 11.157 36.9233 11.157C36.9866 11.157 37.0492 11.1702 37.1073 11.1957C37.1654 11.2213 37.2179 11.2587 37.2614 11.3056C37.305 11.3527 37.3387 11.4082 37.3606 11.4689C37.3825 11.5296 37.3921 11.5943 37.3887 11.6589V13.4229C37.3921 13.4875 37.3825 13.5522 37.3606 13.6129C37.3387 13.6737 37.305 13.7292 37.2614 13.7761C37.2179 13.8231 37.1654 13.8605 37.1073 13.886C37.0492 13.9116 36.9866 13.9248 36.9233 13.9248C36.8601 13.9248 36.7974 13.9116 36.7393 13.886C36.6812 13.8605 36.6287 13.8231 36.5852 13.7761C36.5416 13.7292 36.5079 13.6737 36.486 13.6129C36.4641 13.5522 36.4546 13.4875 36.4579 13.4229ZM32.7978 13.4229V11.6589C32.7944 11.5943 32.804 11.5296 32.8258 11.4689C32.8477 11.4082 32.8815 11.3527 32.925 11.3056C32.9686 11.2587 33.021 11.2213 33.0791 11.1957C33.1372 11.1702 33.1999 11.157 33.2632 11.157C33.3265 11.157 33.3891 11.1702 33.4472 11.1957C33.5053 11.2213 33.5577 11.2587 33.6013 11.3056C33.6448 11.3527 33.6786 11.4082 33.7005 11.4689C33.7223 11.5296 33.7319 11.5943 33.7286 11.6589V13.4229C33.7319 13.4875 33.7223 13.5522 33.7005 13.6129C33.6786 13.6737 33.6448 13.7292 33.6013 13.7761C33.5577 13.8231 33.5053 13.8605 33.4472 13.886C33.3891 13.9116 33.3265 13.9248 33.2632 13.9248C33.1999 13.9248 33.1372 13.9116 33.0791 13.886C33.021 13.8605 32.9686 13.8231 32.925 13.7761C32.8815 13.7292 32.8477 13.6737 32.8258 13.6129C32.804 13.5522 32.7944 13.4875 32.7978 13.4229ZM34.6282 14.1948V10.887C34.6345 10.7651 34.6863 10.6503 34.7728 10.5663C34.8594 10.4822 34.9742 10.4354 35.0936 10.4354C35.2129 10.4354 35.3277 10.4822 35.4143 10.5663C35.5008 10.6503 35.5526 10.7651 35.559 10.887V14.1948C35.5623 14.2594 35.5527 14.3241 35.5309 14.3848C35.509 14.4455 35.4752 14.5011 35.4317 14.5481C35.3881 14.595 35.3357 14.6324 35.2776 14.658C35.2195 14.6836 35.1568 14.6967 35.0936 14.6967C35.0303 14.6967 34.9676 14.6836 34.9095 14.658C34.8514 14.6324 34.799 14.595 34.7554 14.5481C34.7119 14.5011 34.6781 14.4455 34.6562 14.3848C34.6344 14.3241 34.6248 14.2594 34.6282 14.1948Z" fill="white"/>
<path d="M22.0928 20.0632L25.5449 16.5293L21.6449 12.5399L18.1902 16.0738L22.0928 20.0632Z" fill="white"/>
</g>
<defs>
<clipPath id="clip0_1112_248">
<rect width="117" height="25" fill="white"/>
</clipPath>
</defs>
</svg>
